<?xml version="1.0" encoding="UTF-8" standalone="no"?>
<svg width="219px" height="219px" viewBox="0 0 219 219" version="1.1" xmlns="http://www.w3.org/2000/svg" xmlns:xlink="http://www.w3.org/1999/xlink" xmlns:sketch="http://www.bohemiancoding.com/sketch/ns">
    <!-- Generator: Sketch 3.0.2 (7799) - http://www.bohemiancoding.com/sketch -->
    <title>command.mono</title>
    <description>Created with Sketch.</description>
    <defs></defs>
    <g id="assets" stroke="none" stroke-width="1" fill="none" fill-rule="evenodd" sketch:type="MSPage">
        <g id="command.mono" sketch:type="MSLayerGroup" transform="translate(1.000000, 1.000000)">
            <path d="M108.5,217 C168.422895,217 217,168.422895 217,108.5 C217,48.5771046 168.422895,0 108.5,0 C48.5771046,0 0,48.5771046 0,108.5 C0,168.422895 48.5771046,217 108.5,217 Z" id="Oval-26" stroke="#8D8D8D" sketch:type="MSShapeGroup"></path>
            <path d="M103,36.2834747 L103,31.0033512 C103,29.3423789 104.341871,28 105.997152,28 L112.002848,28 C113.658377,28 115,29.3446462 115,31.0033512 L115,36.2026801 C117.387581,36.3793041 119.743429,36.6699861 122.062117,37.0692977 L123.391463,32.1081083 C123.821354,30.5037322 125.464935,29.5543955 127.063814,29.9828138 L132.864871,31.5372023 C134.46399,31.9656848 135.411878,33.6117508 134.982573,35.2139369 L133.68127,40.0704647 C135.94635,40.8592741 138.160971,41.7557974 140.319,42.7539 L142.802172,38.4529208 C143.632658,37.0144765 145.465942,36.5228776 146.899457,37.3505183 L152.100543,40.3533663 C153.534273,41.1811309 154.023829,43.01644 153.194477,44.4529208 L150.761994,48.6661045 C152.751357,50.0180634 154.670929,51.4650477 156.514186,53.0005325 L159.909319,49.6054001 C161.083803,48.4309152 162.981854,48.4305559 164.152315,49.6010166 L168.398983,53.8476849 C169.569619,55.0183208 169.567482,56.9177998 168.3946,58.0906814 L165.080886,61.4043955 C166.66226,63.230282 168.155166,65.1348859 169.55294,67.1115408 L173.547079,64.8055232 C174.985524,63.975037 176.818993,64.4659417 177.646634,65.8994574 L180.649482,71.1005426 C181.477246,72.534273 180.98356,74.3684755 179.547079,75.197828 L175.659152,77.4425241 C176.718223,79.6241583 177.672563,81.866057 178.515635,84.1616845 L182.786063,83.0174269 C184.390439,82.5875356 186.034379,83.5362499 186.462798,85.1351289 L188.017186,90.9361858 C188.445669,92.5353042 187.494078,94.1792323 185.891892,94.6085368 L181.711971,95.7285432 C182.164061,98.1135854 182.500915,100.539407 182.716525,103 L186.996649,103 C188.657621,103 190,104.341871 190,105.997152 L190,112.002848 C190,113.658377 188.655354,115 186.996649,115 L182.79732,115 C182.614192,117.475505 182.30845,119.916898 181.886146,122.318127 L185.891892,123.391463 C187.496268,123.821354 188.445605,125.464935 188.017186,127.063814 L186.462798,132.864871 C186.034315,134.46399 184.388249,135.411878 182.786063,134.982573 L178.843739,133.926231 C178.019841,136.265235 177.080949,138.550024 176.033851,140.773809 L179.547079,142.802172 C180.985524,143.632658 181.477122,145.465942 180.649482,146.899457 L177.646634,152.100543 C176.818869,153.534273 174.98356,154.023829 173.547079,153.194477 L170.050616,151.175793 C168.645731,153.213064 167.140685,155.175941 165.542593,157.057311 L168.3946,159.909319 C169.569085,161.083803 169.569444,162.981854 168.398983,164.152315 L164.152315,168.398983 C162.981679,169.569619 161.0822,169.567482 159.909319,168.3946 L157.057311,165.542593 C155.175941,167.140685 153.213064,168.645731 151.175793,170.050616 L153.194477,173.547079 C154.024963,174.985524 153.534058,176.818993 152.100543,177.646634 L146.899457,180.649482 C145.465727,181.477246 143.631525,180.98356 142.802172,179.547079 L140.773809,176.033851 C138.550024,177.080949 136.265235,178.019841 133.926231,178.843739 L134.982573,182.786063 C135.412464,184.390439 134.46375,186.034379 132.864871,186.462798 L127.063814,188.017186 C125.464696,188.445669 123.820768,187.494078 123.391463,185.891892 L122.318127,181.886146 C119.916898,182.30845 117.475505,182.614192 115,182.79732 L115,186.996649 C115,188.657621 113.658129,190 112.002848,190 L105.997152,190 C104.341623,190 103,188.655354 103,186.996649 L103,182.716525 C100.539407,182.500915 98.1135854,182.164061 95.7285432,181.711971 L94.6085368,185.891892 C94.1786455,187.496268 92.5350648,188.445605 90.9361858,188.017186 L85.1351289,186.462798 C83.5360105,186.034315 82.5881224,184.388249 83.0174269,182.786063 L84.1616845,178.515635 C81.866057,177.672563 79.6241583,176.718223 77.4425241,175.659152 L75.197828,179.547079 C74.3673419,180.985524 72.5340583,181.477122 71.1005426,180.649482 L65.8994574,177.646634 C64.465727,176.818869 63.9761707,174.98356 64.8055232,173.547079 L67.1115408,169.55294 C65.1348859,168.155166 63.230282,166.66226 61.4043955,165.080886 L58.0906814,168.3946 C56.9161966,169.569085 55.0181456,169.569444 53.8476849,168.398983 L49.6010166,164.152315 C48.4303806,162.981679 48.4325184,161.0822 49.6054001,159.909319 L53.0005325,156.514186 C51.4650477,154.670929 50.0180634,152.751357 48.6661045,150.761994 L44.4529208,153.194477 C43.0144765,154.024963 41.181007,153.534058 40.3533663,152.100543 L37.3505183,146.899457 C36.5227537,145.465727 37.01644,143.631525 38.4529208,142.802172 L42.7539,140.319 C41.7557974,138.160971 40.8592741,135.94635 40.0704647,133.68127 L35.2139369,134.982573 C33.6095607,135.412464 31.9656207,134.46375 31.5372023,132.864871 L29.9828138,127.063814 C29.5543313,125.464696 30.5059222,123.820768 32.1081083,123.391463 L37.0692977,122.062117 C36.6699861,119.743429 36.3793041,117.387581 36.2026801,115 L31.0033512,115 C29.3423789,115 28,113.658129 28,112.002848 L28,105.997152 C28,104.341623 29.3446462,103 31.0033512,103 L36.2834747,103 C36.4914018,100.627087 36.8120867,98.2865106 37.2401398,95.9836605 L32.1081083,94.6085368 C30.5037322,94.1786455 29.5543955,92.5350648 29.9828138,90.9361858 L31.5372023,85.1351289 C31.9656848,83.5360105 33.6117508,82.5881224 35.2139369,83.0174269 L40.3952246,84.4057487 C41.2024359,82.1833396 42.1138022,80.0109043 43.1234227,77.8943436 L38.4529208,75.197828 C37.0144765,74.3673419 36.5228776,72.5340583 37.3505183,71.1005426 L40.3533663,65.8994574 C41.1811309,64.465727 43.01644,63.9761707 44.4529208,64.8055232 L49.1586393,67.5223711 C50.5034219,65.5929083 51.9383805,63.7309783 53.4574073,61.9426887 L49.6054001,58.0906814 C48.4309152,56.9161966 48.4305559,55.0181456 49.6010166,53.8476849 L53.8476849,49.6010166 C55.0183208,48.4303806 56.9177998,48.4325184 58.0906814,49.6054001 L61.9426887,53.4574073 C63.7309783,51.9383805 65.5929083,50.5034219 67.5223711,49.1586393 L64.8055232,44.4529208 C63.975037,43.0144765 64.4659417,41.181007 65.8994574,40.3533663 L71.1005426,37.3505183 C72.534273,36.5227537 74.3684755,37.01644 75.197828,38.4529208 L77.8943436,43.1234227 C80.0109043,42.1138022 82.1833396,41.2024359 84.4057487,40.3952246 L83.0174269,35.2139369 C82.5875356,33.6095607 83.5362499,31.9656207 85.1351289,31.5372023 L90.9361858,29.9828138 C92.5353042,29.5543313 94.1792323,30.5059222 94.6085368,32.1081083 L95.9836605,37.2401398 C98.2865106,36.8120867 100.627087,36.4914018 103,36.2834747 L103,36.2834747 Z" id="Rectangle-132" stroke="#8D8D8D" fill="#E9E9E9" sketch:type="MSShapeGroup"></path>
            <ellipse id="light" fill="#FFFFFF" sketch:type="MSShapeGroup" cx="108.5" cy="110" rx="66.5" ry="66"></ellipse>
            <circle id="shadow" fill="#BABABA" sketch:type="MSShapeGroup" cx="108.5" cy="108.5" r="64.5"></circle>
            <circle id="color" fill="#E9E9E9" sketch:type="MSShapeGroup" cx="108.5" cy="110.5" r="61.5"></circle>
            <circle id="shadow" fill="#BABABA" sketch:type="MSShapeGroup" cx="109" cy="112" r="28"></circle>
            <circle id="light" fill="#FFFFFF" sketch:type="MSShapeGroup" cx="109" cy="109" r="27"></circle>
            <ellipse id="color" fill="#E9E9E9" sketch:type="MSShapeGroup" cx="109" cy="109.5" rx="26" ry="25.5"></ellipse>
            <circle id="shadow" fill="#BABABA" sketch:type="MSShapeGroup" cx="109" cy="109" r="19"></circle>
            <circle id="bg" fill="#FFFFFF" sketch:type="MSShapeGroup" cx="109" cy="111" r="17"></circle>
        </g>
    </g>
</svg>