<?xml version="1.0" encoding="UTF-8" standalone="no"?>
<svg width="217px" height="217px" viewBox="0 0 217 217" version="1.1" xmlns="http://www.w3.org/2000/svg" xmlns:xlink="http://www.w3.org/1999/xlink" xmlns:sketch="http://www.bohemiancoding.com/sketch/ns">
    <!-- Generator: Sketch 3.0.2 (7799) - http://www.bohemiancoding.com/sketch -->
    <title>connect.color</title>
    <description>Created with Sketch.</description>
    <defs>
        <linearGradient x1="50%" y1="10.5989583%" x2="50%" y2="99.3060401%" id="linearGradient-1">
            <stop stop-color="#F5F5F5" offset="0%"></stop>
            <stop stop-color="#BBBBBB" offset="36.9878029%"></stop>
            <stop stop-color="#C9C9C9" offset="100%"></stop>
        </linearGradient>
    </defs>
    <g id="assets" stroke="none" stroke-width="1" fill="none" fill-rule="evenodd" sketch:type="MSPage">
        <g id="connect.color" sketch:type="MSLayerGroup" transform="translate(-4.000000, 0.000000)">
            <path d="M112.5,217 C172.422895,217 221,168.422895 221,108.5 C221,48.5771046 172.422895,0 112.5,0 C52.5771046,0 4,48.5771046 4,108.5 C4,168.422895 52.5771046,217 112.5,217 Z" id="Oval-18" fill="#8DCC41" sketch:type="MSShapeGroup"></path>
            <path d="M4.03627557,105.666658 C4.01214089,106.608171 4,107.552668 4,108.5 C4,113.141749 4.29148034,117.715418 4.85713588,122.203704 L36.5092942,122.203705 C38.0730856,125.30356 41.2563059,127.425926 44.9249229,127.425926 L66.2552693,127.425926 C72.2613624,152.399903 94.5681546,170.944444 121.169174,170.944444 L132.47358,170.944444 L132.47358,179.645001 C132.47358,182.050201 134.389844,184 136.764854,184 L151.35778,184 C153.727785,184 155.649053,182.047089 155.649053,179.645001 L155.649053,155.141455 L195.98492,155.141455 C199.306957,155.141455 202,152.417404 202,149.041242 L202,148.322435 C202,144.953381 199.315666,142.222222 195.98492,142.222222 L155.649053,142.222222 L155.649053,85.5118251 L195.98492,85.5118251 C199.306957,85.5118251 202,82.7877745 202,79.4116123 L202,78.6928054 C202,75.3237509 199.315666,72.5925926 195.98492,72.5925926 L155.649053,72.5925926 L155.649053,47.3549987 C155.649053,44.9497993 153.73279,43 151.35778,43 L136.764854,43 C134.394849,43 132.47358,44.9529111 132.47358,47.3549987 L132.47358,56.9259259 L121.169174,56.9259259 C94.568071,56.9259259 72.2602449,75.4665403 66.25478,100.444444 L44.9249229,100.444444 C41.2545657,100.444444 38.0731918,102.568498 36.5098469,105.666667 L4.03627534,105.666667 Z" id="Oval-23" fill-opacity="0.223533741" fill="#1D5705" sketch:type="MSShapeGroup"></path>
            <g id="connect" sketch:type="MSShapeGroup">
                <g id="plug--+-plug--2" transform="translate(143.340708, 68.000000)" fill="url(#linearGradient-1)">
                    <g id="plug-">
                        <rect id="Rectangle-87" x="-0.435840708" y="-7.10542736e-15" width="55.3517699" height="12.9280995" rx="7"></rect>
                    </g>
                    <g id="plug--2" transform="translate(0.000000, 69.677419)">
                        <rect id="Rectangle-87" x="-0.435840708" y="0" width="55.3517699" height="12.9280995" rx="7"></rect>
                    </g>
                </g>
                <g id="Rectangle-87-+-Rectangle-88-+-Rectangle-89">
                    <path d="M4.24860139,101.096774 C4.08375564,103.543177 4,106.011807 4,108.5 C4,111.283795 4.10483845,114.043104 4.31078249,116.774194 L42.2430225,116.774194 L42.2430225,101.096774 L4.24860139,101.096774 Z" id="Oval-29" fill="#303030"></path>
                    <path d="M4.10385282,103.709677 C4.06612738,104.578036 4.03860858,105.449043 4.02141338,106.322581 L42.2430225,106.322581 L42.2430225,103.709677 L4.10385282,103.709677 Z" id="Oval-33" fill="#888888"></path>
                    <path d="M4.06947333,112.419379 C4.13171009,114.172212 4.23552544,115.914458 4.37996309,117.645161 L42.2430225,117.645161 L42.2430225,112.419355 L4.06947247,112.419355 Z" id="Oval-34" fill="#1D1D1D"></path>
                </g>
                <rect id="Rectangle-83" fill="#494949" x="30.0221239" y="95.8709677" width="43.5840708" height="27" rx="11"></rect>
                <path d="M56.0453259,122.870968 L63.4797747,122.870968 C69.5538584,122.870968 74.4778761,117.950147 74.4778761,111.869565 L74.4778761,106.87237 C74.4778761,100.796463 69.5629508,95.8709677 63.4797747,95.8709677 L56.044829,95.8709677 C54.9888477,100.198802 54.4292035,104.719759 54.4292035,109.370968 C54.4292035,114.021953 54.9890215,118.542943 56.0453259,122.870968 Z" id="Rectangle-85" fill="#3D3D3D"></path>
                <path d="M142.469027,166.419355 L117.042156,166.419355 C85.3496328,166.419355 59.659292,140.877922 59.659292,109.370968 C59.659292,77.857086 85.3504753,52.3225806 117.042156,52.3225806 L142.469027,52.3225806 L142.469027,166.419355 L142.469027,166.419355 Z" id="Rectangle-82" fill="#494949"></path>
                <rect id="Rectangle-87" fill="#3D3D3D" x="122.420354" y="52.3225806" width="23.5353982" height="114.096774"></rect>
                <rect id="Rectangle-81" fill="#494949" x="128.522124" y="38.3870968" width="23.5353982" height="141.096774" rx="5"></rect>
            </g>
        </g>
    </g>
</svg>