<?xml version="1.0" encoding="UTF-8" standalone="no"?>
<svg width="99px" height="80px" viewBox="0 0 99 80" version="1.1" xmlns="http://www.w3.org/2000/svg" xmlns:xlink="http://www.w3.org/1999/xlink" xmlns:sketch="http://www.bohemiancoding.com/sketch/ns">
    <!-- Generator: Sketch 3.0.2 (7799) - http://www.bohemiancoding.com/sketch -->
    <title>injector.mini.mono</title>
    <description>Created with Sketch.</description>
    <defs></defs>
    <g id="assets" stroke="none" stroke-width="1" fill="none" fill-rule="evenodd" sketch:type="MSPage">
        <g id="injector.mini.mono" sketch:type="MSLayerGroup" transform="translate(-1.000000, -5.000000)">
            <g id="injector" transform="translate(57.439737, 47.046476) rotate(-45.000000) translate(-57.439737, -47.046476) translate(4.939737, 33.046476)" sketch:type="MSShapeGroup">
                <g id="press" transform="translate(54.285714, 3.584746)">
                    <path d="M4.3907563,15.1355932 L46.7016807,15.1355932 L46.7016807,16.5301071 C46.7016807,17.7397388 47.6870521,18.720339 48.8970588,18.720339 C50.1095327,18.720339 51.092437,17.7357317 51.092437,16.5301071 L51.092437,4.9783675 C51.092437,3.76873582 50.1070656,2.78813559 48.8970588,2.78813559 C47.684585,2.78813559 46.7016807,3.77274287 46.7016807,4.9783675 L46.7016807,6.37288136 L46.7016807,6.37288136 L4.3907563,6.37288136 L4.3907563,1.59030421 C4.3907563,0.712003445 3.67553331,0 2.79317185,0 L1.59758446,0 C0.715262924,0 0,0.71562544 0,1.59030421 L0,19.9181704 C0,20.7964711 0.715222996,21.5084746 1.59758446,21.5084746 L2.79317185,21.5084746 C3.67549338,21.5084746 4.3907563,20.7928491 4.3907563,19.9181704 L4.3907563,15.1355932 L4.3907563,15.1355932 Z" id="Rectangle-11" stroke="#8D8D8D" fill-opacity="0.6" fill="#F7F7F7"></path>
                    <rect id="Rectangle-17" fill-opacity="0.800000012" fill="#FFFFFF" x="47.1008403" y="3.98305085" width="2.39495798" height="13.5423729" rx="2.4"></rect>
                    <rect id="Rectangle-19" fill-opacity="0.800000012" fill="#FFFFFF" x="4.3907563" y="8.76271186" width="42.3109244" height="3.98305085"></rect>
                    <rect id="Rectangle-18" fill-opacity="0.800000012" fill="#F7F7F7" x="0.399159664" y="0.796610169" width="2.79411765" height="19.9152542" rx="1.6"></rect>
                </g>
                <g id="body" transform="translate(23.151261, 0.000000)">
                    <path d="M1.99579832,18.7203388 L1.99579832,18.7235798 C1.99579832,22.4614129 5.03641129,25.4915254 8.78058492,25.4915254 L61.4705882,25.4915254 L61.4705882,3.18644068 L8.78058492,3.18644068 C5.03345075,3.18644068 1.99579832,6.21781695 1.99579832,9.95438631 L1.99579832,9.9576273 C1.99557674,9.95762718 1.99535514,9.95762712 1.99513353,9.95762712 L1.19814378,9.95762712 C0.536427243,9.95762712 0,10.4925832 0,11.1530948 L0,17.5248713 C0,18.1851099 0.534482826,18.720339 1.19814378,18.720339 L1.99513353,18.720339 C1.99535514,18.720339 1.99557674,18.7203389 1.99579832,18.7203388 L1.99579832,18.7203388 Z" id="Rectangle-20" stroke="#8D8D8D" fill-opacity="0.6" fill="#F7F7F7"></path>
                    <rect id="Rectangle-10" stroke="#8D8D8D" fill-opacity="0.6" fill="#F7F7F7" x="61.0714286" y="-9.23705556e-14" width="5.18907563" height="28.279661" rx="2.4"></rect>
                    <rect id="Rectangle-16" fill-opacity="0.8" fill="#FFFFFF" x="61.8697479" y="1.19491525" width="2.79411765" height="25.8898305" rx="2.4"></rect>
                </g>
                <g id="medicine" transform="translate(25.945378, 4.381356)">
                    <path d="M24.748568,19.9152542 L5.63930315,19.9152542 C2.52726273,19.9152542 0,17.2097967 0,13.8724456 L0,6.0428086 C0,2.70658595 2.52480202,0 5.63930315,0 L24.748568,0 L27.1415195,0 C27.8045126,0 28.3403361,0.534363418 28.3403361,1.1935341 L28.3403361,18.7217201 C28.3403361,19.3825693 27.8036076,19.9152542 27.1415195,19.9152542 L24.748568,19.9152542 L24.748568,19.9152542 Z" id="Rectangle-22" fill-opacity="0.1424649" fill="#000000"></path>
                    <ellipse id="Oval-3" fill-opacity="0.363224638" fill="#FFFFFF" cx="14.7689076" cy="4.38135593" rx="2.79411765" ry="2.78813559"></ellipse>
                    <ellipse id="Oval-4" fill-opacity="0.363224638" fill="#FFFFFF" cx="5.18907563" cy="13.1440678" rx="2.79411765" ry="2.78813559"></ellipse>
                    <path d="M22.7521008,10.3559322 C24.0747996,10.3559322 25.1470588,9.28596864 25.1470588,7.96610169 C25.1470588,6.64623475 24.0747996,5.57627119 22.7521008,5.57627119 C21.4294021,5.57627119 20.3571429,6.64623475 20.3571429,7.96610169 C20.3571429,9.28596864 21.4294021,10.3559322 22.7521008,10.3559322 Z" id="Oval-5" fill-opacity="0.363224638" fill="#FFFFFF"></path>
                    <path d="M25.3466387,15.9322034 C26.3386627,15.9322034 27.1428571,15.1297307 27.1428571,14.1398305 C27.1428571,13.1499303 26.3386627,12.3474576 25.3466387,12.3474576 C24.3546146,12.3474576 23.5504202,13.1499303 23.5504202,14.1398305 C23.5504202,15.1297307 24.3546146,15.9322034 25.3466387,15.9322034 Z" id="Oval-7" fill-opacity="0.363224638" fill="#FFFFFF"></path>
                    <path d="M7.18487395,8.36440678 C8.28712293,8.36440678 9.18067227,7.47277048 9.18067227,6.37288136 C9.18067227,5.27299224 8.28712293,4.38135593 7.18487395,4.38135593 C6.08262497,4.38135593 5.18907563,5.27299224 5.18907563,6.37288136 C5.18907563,7.47277048 6.08262497,8.36440678 7.18487395,8.36440678 Z" id="Oval-8" fill-opacity="0.363224638" fill="#FFFFFF"></path>
                    <ellipse id="Oval-6" fill-opacity="0.363224638" fill="#FFFFFF" cx="15.7668067" cy="15.3347458" rx="2.99369748" ry="2.98728814"></ellipse>
                </g>
                <g id="division" transform="translate(30.336134, 17.127119)" fill="#474747" fill-opacity="0.515936368">
                    <rect id="Rectangle-23" x="0" y="0" width="1.12563714" height="7.56779661"></rect>
                    <rect id="Rectangle-24" x="6.75382284" y="8.52651283e-14" width="1.12563714" height="7.56779661"></rect>
                    <rect id="Rectangle-26" x="13.5076457" y="8.52651283e-14" width="1.12563714" height="7.56779661"></rect>
                    <rect id="Rectangle-25" x="20.2614685" y="0" width="1.12563714" height="7.56779661"></rect>
                    <rect id="Rectangle-30" x="27.0152914" y="0" width="1.12563714" height="7.56779661"></rect>
                    <rect id="Rectangle-29" x="33.7691142" y="0" width="1.12563714" height="7.56779661"></rect>
                    <rect id="Rectangle-28" x="40.522937" y="7.10542736e-14" width="1.12563714" height="7.56779661"></rect>
                    <rect id="Rectangle-27" x="47.2767599" y="7.10542736e-14" width="1.12563714" height="7.56779661"></rect>
                </g>
                <rect id="needle-head" stroke="#979797" fill-opacity="0.6" fill="#FFFFFF" x="20.6393914" y="12.4299493" width="2.79411765" height="3.98305085"></rect>
                <path d="M1.02914987,15.0189324 L20.6393914,15.0189324 L20.6393914,13.8240171 L-0.116911159,13.8240171 L1.02914987,15.0189324 L1.02914987,15.0189324 Z" id="needle" fill="#8D8D8D"></path>
            </g>
            <path d="M17.2615905,79.6293304 C17.2615905,79.6293304 13.9743122,65.3023526 12.1265186,62.7590829 C10.278725,60.2158131 6.69384321,59.6703429 4.11946107,61.5407411 C1.54507892,63.4111392 0.956062533,66.9891239 2.80385614,69.5323936 C4.65164974,72.0756633 17.2615905,79.6293304 17.2615905,79.6293304 Z" id="Oval-15" stroke="#8D8D8D" sketch:type="MSShapeGroup"></path>
            <path d="M21.2860335,79.0301437 C21.2860335,79.0301437 26.8720267,71.3634694 27.3283819,69.3867778 C27.7847371,67.4100862 26.5326581,65.4331864 24.5317852,64.9712485 C22.5309122,64.5093106 20.5389353,65.7372611 20.0825801,67.7139526 C19.6262249,69.6906442 21.2860335,79.0301437 21.2860335,79.0301437 Z" id="Oval-16" stroke="#8D8D8D" sketch:type="MSShapeGroup"></path>
        </g>
    </g>
</svg>