<?xml version="1.0" encoding="UTF-8" standalone="no"?>
<svg width="74px" height="73px" viewBox="0 0 74 73" version="1.1" xmlns="http://www.w3.org/2000/svg" xmlns:xlink="http://www.w3.org/1999/xlink" xmlns:sketch="http://www.bohemiancoding.com/sketch/ns">
    <!-- Generator: Sketch 3.0.2 (7799) - http://www.bohemiancoding.com/sketch -->
    <title>logo.mini</title>
    <description>Created with Sketch.</description>
    <defs></defs>
    <g id="assets" stroke="none" stroke-width="1" fill="none" fill-rule="evenodd" sketch:type="MSPage">
        <g id="logo.mini" sketch:type="MSLayerGroup" fill="#9B9B9B">
            <path d="M33.6406007,14.5344771 C29.362049,11.6122638 24.1676347,9.9 18.5671265,9.9 L11,9.9 L11,17 L0,8.5 L11,0 L11,7 L18.5671265,7 C25.0916238,7 31.1200055,9.09144231 35.9995266,12.6309794 C40.8793475,9.09127631 46.9081759,7 53.4328735,7 L61.1739318,7 C61.8510956,4.1333 64.4264184,2 67.5,2 C71.0898509,2 74,4.91014913 74,8.5 C74,12.0898509 71.0898509,15 67.5,15 C64.3907844,15 61.7914479,12.8169478 61.1511471,9.9 L53.4328735,9.9 C47.8318201,9.9 42.6370851,11.6121794 38.3584191,14.5344554 C44.2816108,19.8393337 48,27.4917806 48,36 C48,44.509419 44.2818979,52.1612133 38.3593993,57.4655229 C42.637951,60.3877362 47.8323653,62.1 53.4328735,62.1 L63,62.1 L63,63.55 L63,65 L53.4328735,65 C46.9083762,65 40.8799945,62.9085577 36.0004734,59.3690206 C31.1206525,62.9087237 25.0918241,65 18.5671265,65 L13.9810552,65 C13.7257427,68.3562239 10.9216149,71 7.5,71 C3.91014913,71 1,68.0898509 1,64.5 C1,60.9101491 3.91014913,58 7.5,58 C10.2421616,58 12.5877242,59.6980424 13.5425606,62.1 L18.5671265,62.1 C24.1681799,62.1 29.3629149,60.3878206 33.6415809,57.4655446 C27.7183892,52.1606663 24,44.5082194 24,36 C24,27.490581 27.7181021,19.8387867 33.6406007,14.5344771 Z M35.9995071,16.3473722 C41.5506354,21.1315119 45.0566038,28.1622036 45.0566038,36 C45.0566038,43.8384676 41.5511271,50.8687943 36.0004929,55.6526278 C30.4493646,50.8684881 26.9433962,43.8377964 26.9433962,36 C26.9433962,28.1615324 30.4488729,21.1312057 35.9995071,16.3473722 Z M63,73 L63,56 L74,64.5 L63,73 Z" id="Triangle-1" sketch:type="MSShapeGroup"></path>
        </g>
    </g>
</svg>