<?xml version="1.0" encoding="UTF-8" standalone="no"?>
<svg width="217px" height="217px" viewBox="0 0 217 217" version="1.1" xmlns="http://www.w3.org/2000/svg" xmlns:xlink="http://www.w3.org/1999/xlink" xmlns:sketch="http://www.bohemiancoding.com/sketch/ns">
    <!-- Generator: Sketch 3.0.2 (7799) - http://www.bohemiancoding.com/sketch -->
    <title>model.color</title>
    <description>Created with Sketch.</description>
    <defs></defs>
    <g id="assets" stroke="none" stroke-width="1" fill="none" fill-rule="evenodd" sketch:type="MSPage">
        <g id="model.color" sketch:type="MSLayerGroup">
            <path d="M108.5,217 C168.422895,217 217,168.422895 217,108.5 C217,48.5771046 168.422895,0 108.5,0 C48.5771046,0 0,48.5771046 0,108.5 C0,168.422895 48.5771046,217 108.5,217 Z" id="Oval-24" fill="#569EFD" sketch:type="MSShapeGroup"></path>
            <g id="Group" transform="translate(27.000000, 59.000000)" sketch:type="MSShapeGroup">
                <rect id="Rectangle-103" fill="#333E4F" x="27" y="3" width="112" height="67"></rect>
                <path d="M164.99774,118.789181 C145.095619,142.745892 115.079204,158 81.5,158 C49.0259829,158 19.8840902,143.733479 -8.52651283e-14,121.126115 L5.68434189e-14,9.79486682 C5.68434189e-14,4.39547815 4.37254395,0.0120246363 9.76635026,0.0120246363 C9.76635026,0.0120246363 19.1917394,0.0111061039 33,0.00977623235 L33,57 L132,57 L132,0.000594074271 L132,0.00059407427 C137.748632,0.000125441619 141.261213,-0.000107858643 141.479016,6.63899822e-07 C142.841791,0.000679679934 144.204898,0.522216023 145.245177,1.56459667 L163.428968,19.785122 C164.468839,20.8270945 164.989431,22.1928482 164.990264,23.5584245 C164.990825,24.4777968 164.995043,81.5744901 164.99774,118.789181 L164.99774,118.789181 Z" id="Oval-35" fill="#445267"></path>
                <rect id="Rectangle-100" fill="#D8D8D8" x="38" y="0" width="90" height="53"></rect>
                <rect id="Rectangle-101" fill="#333E4F" x="104.176471" y="8.08474576" width="15.8823529" height="37.7288136"></rect>
                <path d="M143,138.899003 C125.520871,150.946305 104.334175,158 81.5,158 C59.9568716,158 39.8801914,151.721389 23,140.894207 L23,70 L143,70 L143,138.899003 L143,138.899003 Z" id="Oval-36" fill="#D8D8D8"></path>
                <rect id="Rectangle-104" fill="#B2742C" x="23" y="70" width="120" height="22"></rect>
                <circle id="Oval-31" fill="#333E4F" cx="8.5" cy="8.5" r="3.5"></circle>
                <rect id="Rectangle-105" fill="#878787" x="32" y="106" width="102" height="2"></rect>
                <rect id="Rectangle-106" fill="#878787" x="31" y="120" width="102" height="2"></rect>
                <rect id="Rectangle-107" fill="#878787" x="31" y="134" width="102" height="2"></rect>
                <path d="M122.465973,150 C124.01534,149.367797 125.546816,148.700807 127.05943,148 L35.94057,148 C37.4531841,148.700807 38.98466,149.367797 40.5340274,150 L122.465973,150 L122.465973,150 Z" id="Oval-37" fill="#878787"></path>
                <path d="M41.032,87.888 C40.8559991,87.888 40.6760009,87.7520014 40.492,87.48 C40.3079991,87.2079986 40.2080001,86.9440013 40.192,86.688 C40.0639994,85.7599954 39.9080009,84.6760062 39.724,83.436 C39.5399991,82.1959938 39.2960015,80.7280085 38.992,79.032 C38.5119976,79.9440046 38.0400023,80.8479955 37.576,81.744 C37.1119977,82.6400045 36.6480023,83.5359955 36.184,84.432 C35.8959986,84.9920028 35.6000015,85.272 35.296,85.272 C34.8479978,85.272 34.4960013,85.0400023 34.24,84.576 C33.6799972,83.7599959 33.100003,82.9960036 32.5,82.284 C31.899997,81.5719964 31.2800032,80.8640035 30.64,80.16 C30.6079998,81.2320054 30.6199997,82.2839948 30.676,83.316 C30.7320003,84.3480052 30.8319993,85.3519951 30.976,86.328 C31.0080002,86.5040009 30.9880004,86.6599993 30.916,86.796 C30.8439996,86.9320007 30.7680004,87.0159998 30.688,87.048 C30.4639989,87.1280004 30.2400011,87.0800009 30.016,86.904 C29.7919989,86.7279991 29.6560002,86.536001 29.608,86.328 C29.4639993,85.7519971 29.3600003,85.1120035 29.296,84.408 C29.2319997,83.7039965 29.1880001,82.9920036 29.164,82.272 C29.1399999,81.5519964 29.128,80.8400035 29.128,80.136 C29.128,79.4319965 29.1359999,78.7920029 29.152,78.216 C29.152,77.5759968 29.3599979,77.256 29.776,77.256 C30.0320013,77.256 30.2479991,77.3479991 30.424,77.532 C30.6000009,77.7160009 30.6959999,77.9759983 30.712,78.312 C31.512004,79.112004 32.2679964,79.9319958 32.98,80.772 C33.6920036,81.6120042 34.3839966,82.4639957 35.056,83.328 C35.6160028,82.319995 36.1839971,81.2840053 36.76,80.22 C37.3360029,79.1559947 37.9839964,78.120005 38.704,77.112 C38.7360002,76.9359991 38.8239993,76.7560009 38.968,76.572 C39.1120007,76.3879991 39.2719991,76.2640003 39.448,76.2 C39.6240009,76.1359997 39.807999,76.207999 40,76.416 C40.192001,76.624001 40.3199997,76.8639986 40.384,77.136 C40.6560014,78.7520081 40.891999,80.3679919 41.092,81.984 C41.292001,83.6000081 41.487999,85.2159919 41.68,86.832 C41.7120002,87.1360015 41.6560007,87.387999 41.512,87.588 C41.3679993,87.788001 41.2080009,87.888 41.032,87.888 Z M49.144,78.624 C49.6240024,78.8000009 50.0279984,79.0639982 50.356,79.416 C50.6840016,79.7680018 50.9359991,80.1639978 51.112,80.604 C51.2880009,81.0440022 51.3879999,81.4959977 51.412,81.96 C51.4360001,82.4240023 51.3840006,82.855998 51.256,83.256 C51.0799991,83.7040022 50.8560014,84.1439978 50.584,84.576 C50.3119986,85.0080022 50.0000018,85.3919983 49.648,85.728 C49.2959982,86.0640017 48.8960022,86.335999 48.448,86.544 C47.9999978,86.752001 47.5040027,86.856 46.96,86.856 C46.3039967,86.856 45.7520022,86.7040015 45.304,86.4 C44.8559978,86.0959985 44.5040013,85.7040024 44.248,85.224 C43.9919987,84.7439976 43.8280004,84.200003 43.756,83.592 C43.6839996,82.983997 43.6959995,82.376003 43.792,81.768 C43.8560003,81.3199978 43.9639992,80.8840021 44.116,80.46 C44.2680008,80.0359979 44.4639988,79.6600016 44.704,79.332 C44.9440012,79.0039984 45.2199984,78.736001 45.532,78.528 C45.8440016,78.319999 46.199998,78.216 46.6,78.216 C46.8240011,78.216 47.1039983,78.2599996 47.44,78.348 C47.7760017,78.4360004 48.0879986,78.5599992 48.376,78.72 C48.584001,78.527999 48.8399985,78.4959994 49.144,78.624 Z M48.232,80.376 C48.0559991,80.2639994 47.8520012,80.1160009 47.62,79.932 C47.3879988,79.7479991 47.1840009,79.656 47.008,79.656 C46.815999,79.656 46.6280009,79.7439991 46.444,79.92 C46.2599991,80.0960009 46.1000007,80.2999988 45.964,80.532 C45.8279993,80.7640012 45.7120005,80.9999988 45.616,81.24 C45.5199995,81.4800012 45.4560002,81.6719993 45.424,81.816 C45.3759998,82.0560012 45.3440001,82.3439983 45.328,82.68 C45.3119999,83.0160017 45.3359997,83.3479984 45.4,83.676 C45.4640003,84.0040016 45.5879991,84.2999987 45.772,84.564 C45.9560009,84.8280013 46.2319982,85.0159994 46.6,85.128 C46.8240011,85.1920003 47.0879985,85.1880004 47.392,85.116 C47.6960015,85.0439996 47.9959985,84.912001 48.292,84.72 C48.5880015,84.527999 48.8679987,84.2720016 49.132,83.952 C49.3960013,83.6319984 49.5999993,83.2640021 49.744,82.848 C49.9040008,82.3839977 49.9080008,81.9000025 49.756,81.396 C49.6039992,80.8919975 49.2960023,80.5280011 48.832,80.304 C48.7199994,80.3840004 48.6080006,80.424 48.496,80.424 C48.3839994,80.424 48.2960003,80.4080002 48.232,80.376 Z M57.376,74.832 C57.3279998,74.5439986 57.3479996,74.2800012 57.436,74.04 C57.5240004,73.7999988 57.7039986,73.6640002 57.976,73.632 C58.2160012,73.5999998 58.4279991,73.6639992 58.612,73.824 C58.7960009,73.9840008 58.9119998,74.1919987 58.96,74.448 C59.2800016,76.2880092 59.5799986,78.1159909 59.86,79.932 C60.1400014,81.7480091 60.3919989,83.5279913 60.616,85.272 C60.6800003,85.7360023 60.6480006,86.0519992 60.52,86.22 C60.3919994,86.3880008 60.2400009,86.5119996 60.064,86.592 C59.871999,86.6720004 59.6920008,86.6720004 59.524,86.592 C59.3559992,86.5119996 59.2480002,86.368001 59.2,86.16 L59.176,86.016 L59.08,86.04 C58.5519974,86.232001 58.0000029,86.3399999 57.424,86.364 C56.8479971,86.3880001 56.2960026,86.3200008 55.768,86.16 C55.2399974,85.9999992 54.772002,85.7400018 54.364,85.38 C53.955998,85.0199982 53.6640009,84.5600028 53.488,84 C53.1039981,82.7679938 53.3439957,81.648005 54.208,80.64 C54.5760018,80.2239979 55.0319973,79.8480017 55.576,79.512 C56.1200027,79.1759983 56.7759962,78.912001 57.544,78.72 L57.976,78.624 L57.376,74.832 Z M54.952,83.4 C55.0480005,83.7840019 55.2239987,84.079999 55.48,84.288 C55.7360013,84.496001 56.0399982,84.6359996 56.392,84.708 C56.7440018,84.7800004 57.119998,84.7920002 57.52,84.744 C57.920002,84.6959998 58.3119981,84.6080006 58.696,84.48 L58.912,84.408 L58.24,80.184 L57.76,80.304 C57.4239983,80.4000005 57.0680019,80.547999 56.692,80.748 C56.3159981,80.948001 55.9840014,81.1839986 55.696,81.456 C55.4079986,81.7280014 55.1880008,82.0319983 55.036,82.368 C54.8839992,82.7040017 54.8559995,83.0479982 54.952,83.4 Z M67.696,81.36 C67.0719969,81.7280018 66.4000036,82.011999 65.68,82.212 C64.9599964,82.412001 64.1840042,82.512 63.352,82.512 C63.3840002,83.0720028 63.5439986,83.5159984 63.832,83.844 C64.1200014,84.1720016 64.4799978,84.3679997 64.912,84.432 C65.1680013,84.4640002 65.4279987,84.4560002 65.692,84.408 C65.9560013,84.3599998 66.2039988,84.2840005 66.436,84.18 C66.6680012,84.0759995 66.879999,83.9600006 67.072,83.832 C67.264001,83.7039994 67.4319993,83.5760006 67.576,83.448 C67.7200007,83.3199994 67.8719992,83.2360002 68.032,83.196 C68.1920008,83.1559998 68.3119996,83.1519998 68.392,83.184 C68.6160011,83.2640004 68.6960003,83.503998 68.632,83.904 C68.3759987,84.4160026 68.0080024,84.8519982 67.528,85.212 C67.0479976,85.5720018 66.512003,85.7999995 65.92,85.896 C65.4079974,85.9920005 64.8800027,85.9680007 64.336,85.824 C63.7919973,85.6799993 63.3040022,85.4000021 62.872,84.984 C62.5039982,84.6159982 62.224001,84.1840025 62.032,83.688 C61.839999,83.1919975 61.7200002,82.6800026 61.672,82.152 C61.6239998,81.6559975 61.6679993,81.1840022 61.804,80.736 C61.9400007,80.2879978 62.1519986,79.8920017 62.44,79.548 C62.7280014,79.2039983 63.0879978,78.9200011 63.52,78.696 C63.9520022,78.4719989 64.4559971,78.3440002 65.032,78.312 C65.7200034,78.2639998 66.3439972,78.3919985 66.904,78.696 C67.4640028,79.0000015 67.8559989,79.4239973 68.08,79.968 C68.2080006,80.2720015 68.2440003,80.5359989 68.188,80.76 C68.1319997,80.9840011 67.9680014,81.1839991 67.696,81.36 Z M64.936,79.728 C64.7759992,79.7600002 64.6040009,79.8159996 64.42,79.896 C64.2359991,79.9760004 64.0680008,80.0759994 63.916,80.196 C63.7639992,80.3160006 63.6280006,80.4519992 63.508,80.604 C63.3879994,80.7560008 63.3200001,80.927999 63.304,81.12 C63.5760014,81.12 63.8759984,81.0960002 64.204,81.048 C64.5320016,80.9999998 64.8519984,80.9400004 65.164,80.868 C65.4760016,80.7959996 65.7639987,80.7120005 66.028,80.616 C66.2920013,80.5199995 66.5119991,80.4160006 66.688,80.304 C66.5599994,79.9999985 66.3240017,79.8120004 65.98,79.74 C65.6359983,79.6679996 65.2880018,79.6639997 64.936,79.728 Z M72.328,75.768 C72.4080004,77.5120087 72.543999,79.3159907 72.736,81.18 C72.928001,83.0440093 73.1359989,84.8239915 73.36,86.52 C73.4080002,87.2240035 73.2160022,87.5839999 72.784,87.6 C72.6879995,87.6 72.5920005,87.5640004 72.496,87.492 C72.3999995,87.4199996 72.3120004,87.3280006 72.232,87.216 C72.1519996,87.1039994 72.0760004,86.9840006 72.004,86.856 C71.9319996,86.7279994 71.8880001,86.6160005 71.872,86.52 C71.7439994,85.7039959 71.6240006,84.8400046 71.512,83.928 C71.3999994,83.0159954 71.3000004,82.1000046 71.212,81.18 C71.1239996,80.2599954 71.0480003,79.3600044 70.984,78.48 C70.9199997,77.5999956 70.8800001,76.7920037 70.864,76.056 C70.8960002,75.6719981 70.9519996,75.3480013 71.032,75.084 C71.1120004,74.8199987 71.2799987,74.6959999 71.536,74.712 C71.8080014,74.7280001 72.0039994,74.835999 72.124,75.036 C72.2440006,75.236001 72.3119999,75.4799986 72.328,75.768 L72.328,75.768 Z" id="Model" fill="#FFFFFF"></path>
            </g>
        </g>
    </g>
</svg>