<?xml version="1.0" encoding="UTF-8" standalone="no"?>
<svg width="217px" height="217px" viewBox="0 0 217 217" version="1.1" xmlns="http://www.w3.org/2000/svg" xmlns:xlink="http://www.w3.org/1999/xlink" xmlns:sketch="http://www.bohemiancoding.com/sketch/ns">
    <!-- Generator: Sketch 3.0.2 (7799) - http://www.bohemiancoding.com/sketch -->
    <title>model.mono</title>
    <description>Created with Sketch.</description>
    <defs></defs>
    <g id="assets" stroke="none" stroke-width="1" fill="none" fill-rule="evenodd" sketch:type="MSPage">
        <g id="model.mono" sketch:type="MSLayerGroup">
            <path d="M108.5,217 C168.422895,217 217,168.422895 217,108.5 C217,48.5771046 168.422895,0 108.5,0 C48.5771046,0 0,48.5771046 0,108.5 C0,168.422895 48.5771046,217 108.5,217 Z" id="Oval-46" stroke="#8D8D8D" fill="#FFFFFF" sketch:type="MSShapeGroup"></path>
            <g id="Group" transform="translate(35.000000, 37.000000)" sketch:type="MSShapeGroup">
                <rect id="Rectangle-103" stroke="#8D8D8D" x="24" y="3" width="100" height="60"></rect>
                <path d="M118.4,0.000557682078 C123.556349,0.000135944455 126.707028,-7.40099677e-05 126.90239,2.36529652e-05 C128.124758,0.000634721374 129.347424,0.469982082 130.280523,1.40805402 L146.590831,17.8052918 C147.523565,18.7429965 147.99052,19.9720823 147.991267,21.2010084 C147.992014,22.4299345 148,135.196105 148,135.196105 C148,140.055189 144.077961,144 139.23988,144 L8.76012023,144 C3.92051963,144 0,140.058362 0,135.196105 L0,8.81473932 C0,3.95565548 3.92203942,0.0108444132 8.76012023,0.0108444132 C8.76012023,0.0108444132 17.2144086,0.0100177962 29.6,0.00882100201 L29.6,51.2961597 L118.4,51.2961597 L118.4,0.000557682079 L118.4,0.000557682078 Z" id="Rectangle-100" stroke="#8D8D8D" fill="#FFFFFF"></path>
                <rect id="Rectangle-100" stroke="#8D8D8D" fill="#FFFFFF" x="34" y="0" width="81" height="48"></rect>
                <rect id="Rectangle-101" stroke="#8D8D8D" fill="#FFFFFF" x="93" y="7" width="14" height="34"></rect>
                <circle id="Oval-31" stroke="#8D8D8D" fill="#FFFFFF" cx="7" cy="7" r="3"></circle>
                <rect id="Rectangle-102" fill="#ECECEC" x="21" y="62" width="108" height="81"></rect>
                <rect id="Rectangle-104" fill="#C6C6C6" x="21" y="62" width="108" height="20"></rect>
                <rect id="Rectangle-105" fill="#8D8D8D" x="29" y="94" width="91" height="2"></rect>
                <rect id="Rectangle-106" fill="#8D8D8D" x="28" y="107" width="91" height="2"></rect>
                <rect id="Rectangle-107" fill="#8D8D8D" x="28" y="120" width="91" height="2"></rect>
                <rect id="Rectangle-108" fill="#8D8D8D" x="28" y="133" width="91" height="2"></rect>
            </g>
        </g>
    </g>
</svg>