<?xml version="1.0" encoding="UTF-8" standalone="no"?>
<svg width="217px" height="217px" viewBox="0 0 217 217" version="1.1" xmlns="http://www.w3.org/2000/svg" xmlns:xlink="http://www.w3.org/1999/xlink" xmlns:sketch="http://www.bohemiancoding.com/sketch/ns">
    <!-- Generator: Sketch 3.0.2 (7799) - http://www.bohemiancoding.com/sketch -->
    <title>view.input.color</title>
    <description>Created with Sketch.</description>
    <defs></defs>
    <g id="assets" stroke="none" stroke-width="1" fill="none" fill-rule="evenodd" sketch:type="MSPage">
        <g id="view.input.color" sketch:type="MSLayerGroup">
            <path d="M108.5,217 C168.422895,217 217,168.422895 217,108.5 C217,48.5771046 168.422895,0 108.5,0 C48.5771046,0 0,48.5771046 0,108.5 C0,168.422895 48.5771046,217 108.5,217 Z" id="Oval-28" stroke="#315B93" stroke-width="10" fill="#EDEDED" sketch:type="MSShapeGroup"></path>
            <path d="M153.437179,185.839403 C173.437788,166.157901 185.839403,138.777227 185.839403,108.5 C185.839403,48.5771046 137.262298,0 77.3394026,0 C47.062176,0 19.6815016,12.4016146 0,32.4022234 L153.437179,185.839403 L153.437179,185.839403 Z" id="Oval-41" fill-opacity="0.157410553" fill="#FFFFFF" sketch:type="MSShapeGroup" transform="translate(93.000000, 93.000000) rotate(-90.000000) translate(-93.000000, -93.000000) "></path>
            <g id="Group" transform="translate(43.000000, 57.000000)" sketch:type="MSShapeGroup">
                <rect id="Rectangle-102" stroke="#7C7C7C" stroke-width="2" fill="#E4E4E4" x="0" y="0" width="132" height="16"></rect>
                <rect id="Rectangle-102" stroke="#7C7C7C" stroke-width="2" fill="#E4E4E4" x="0" y="22" width="132" height="62"></rect>
                <rect id="Rectangle-102" stroke="#4EA69C" stroke-width="2" fill="#87CCC4" x="92" y="90" width="40" height="13" rx="3"></rect>
                <rect id="Rectangle-102" stroke="#4EA69C" stroke-width="2" fill="#87CCC4" x="48" y="90" width="40" height="13" rx="3"></rect>
                <rect id="Rectangle-130" fill="#B4EDE6" x="58" y="95" width="20" height="4"></rect>
                <rect id="Rectangle-131" fill="#B4EDE6" x="102" y="95" width="20" height="4"></rect>
                <g id="Group-2" transform="translate(8.000000, 6.000000)" fill="#8E8E8E">
                    <rect id="Rectangle-112" x="0" y="0" width="75" height="4"></rect>
                    <rect id="Rectangle-103" x="0" y="23" width="50" height="4"></rect>
                    <rect id="Rectangle-115" x="54" y="23" width="50" height="4"></rect>
                    <rect id="Rectangle-109" x="0" y="34" width="28" height="4"></rect>
                    <rect id="Rectangle-116" x="32" y="34" width="21" height="4"></rect>
                    <rect id="Rectangle-110" x="0" y="45" width="82" height="4"></rect>
                    <rect id="Rectangle-111" x="0" y="56" width="19" height="4"></rect>
                    <rect id="Rectangle-117" x="23" y="56" width="27" height="4"></rect>
                    <rect id="Rectangle-118" x="54" y="56" width="37" height="4"></rect>
                    <rect id="Rectangle-114" x="0" y="67" width="66" height="4"></rect>
                    <rect id="Rectangle-119" x="71" y="67" width="20" height="4"></rect>
                </g>
            </g>
        </g>
    </g>
</svg>